<svg width="190" height="44" viewBox="0 0 190 44" fill="none" xmlns="http://www.w3.org/2000/svg">
<path d="M137.806 22.6111C143.712 22.6111 148.5 17.823 148.5 11.9166C148.5 6.01023 143.712 1.22217 137.806 1.22217C131.899 1.22217 127.111 6.01023 127.111 11.9166C127.111 17.823 131.899 22.6111 137.806 22.6111Z" stroke="#172C66" stroke-width="1.22222" stroke-miterlimit="10"/>
<path d="M141.167 9.77762C142.854 9.77762 144.222 8.4096 144.222 6.72206C144.222 5.03452 142.854 3.6665 141.167 3.6665C139.479 3.6665 138.111 5.03452 138.111 6.72206C138.111 8.4096 139.479 9.77762 141.167 9.77762Z" stroke="#172C66" stroke-width="0.611111" stroke-miterlimit="10"/>
<path d="M134.914 12.8376C135.514 12.6457 135.764 11.7461 135.471 10.8283C135.177 9.9106 134.453 9.32225 133.852 9.51422C133.251 9.70619 133.002 10.6058 133.295 11.5235C133.588 12.4413 134.313 13.0296 134.914 12.8376Z" stroke="#172C66" stroke-width="0.611111" stroke-miterlimit="10"/>
<path d="M130.98 10.1831C131.34 8.76349 130.98 7.44748 130.175 7.24372C129.371 7.03995 128.428 8.02559 128.068 9.4452C127.708 10.8648 128.069 12.1808 128.873 12.3846C129.677 12.5883 130.62 11.6027 130.98 10.1831Z" stroke="#172C66" stroke-width="0.611111" stroke-miterlimit="10"/>
<path d="M132.599 5.01782C132.93 5.01782 133.198 4.74953 133.198 4.41858C133.198 4.08763 132.93 3.81934 132.599 3.81934C132.268 3.81934 132 4.08763 132 4.41858C132 4.74953 132.268 5.01782 132.599 5.01782Z" fill="#172C66" stroke="#172C66" stroke-width="0.611111" stroke-miterlimit="10"/>
<path d="M134.542 4.3202C135.102 4.3202 135.557 3.86606 135.557 3.30585C135.557 2.74564 135.102 2.2915 134.542 2.2915C133.982 2.2915 133.528 2.74564 133.528 3.30585C133.528 3.86606 133.982 4.3202 134.542 4.3202Z" fill="#172C66" stroke="#172C66" stroke-width="0.611111" stroke-miterlimit="10"/>
<path d="M133.91 16.8054C134.121 16.8054 134.292 16.6344 134.292 16.4234C134.292 16.2125 134.121 16.0415 133.91 16.0415C133.699 16.0415 133.528 16.2125 133.528 16.4234C133.528 16.6344 133.699 16.8054 133.91 16.8054Z" fill="#172C66" stroke="#172C66" stroke-width="0.611111" stroke-miterlimit="10"/>
<path d="M132.764 15.2778C133.186 15.2778 133.528 14.9358 133.528 14.5139C133.528 14.092 133.186 13.75 132.764 13.75C132.342 13.75 132 14.092 132 14.5139C132 14.9358 132.342 15.2778 132.764 15.2778Z" fill="#172C66" stroke="#172C66" stroke-width="0.611111" stroke-miterlimit="10"/>
<path d="M145.368 11.4582C145.579 11.4582 145.75 11.2872 145.75 11.0763C145.75 10.8653 145.579 10.6943 145.368 10.6943C145.157 10.6943 144.986 10.8653 144.986 11.0763C144.986 11.2872 145.157 11.4582 145.368 11.4582Z" fill="#172C66" stroke="#172C66" stroke-width="0.611111" stroke-miterlimit="10"/>
<path d="M146.423 10.0941C146.983 10.0941 147.437 9.63999 147.437 9.07978C147.437 8.51957 146.983 8.06543 146.423 8.06543C145.863 8.06543 145.409 8.51957 145.409 9.07978C145.409 9.63999 145.863 10.0941 146.423 10.0941Z" fill="#172C66" stroke="#172C66" stroke-width="0.611111" stroke-miterlimit="10"/>
<path d="M129.708 14.8438C131.345 18.6332 136.099 20.5134 136.099 20.5134" stroke="#172C66" stroke-width="0.611111" stroke-miterlimit="10"/>
<path d="M138.305 21.0229L137.11 20.7309" stroke="#172C66" stroke-width="0.611111" stroke-miterlimit="10"/>
<path d="M147.381 11.5084C147.371 11.89 147.039 16.7016 143.617 18.9906" stroke="#172C66" stroke-width="0.611111" stroke-miterlimit="10"/>
<path d="M148.655 11.6719C148.862 11.6719 148.862 11.3511 148.655 11.3511C148.448 11.3511 148.448 11.6719 148.655 11.6719Z" fill="#172C66"/>
<path d="M148.492 11.5088C148.521 11.6474 148.57 11.7808 148.629 11.9092L148.654 11.9419C148.669 11.9573 148.686 11.9688 148.706 11.9752C148.738 11.9887 148.776 11.9945 148.81 11.9836C148.836 11.9752 148.86 11.9611 148.881 11.9425C148.907 11.9188 148.932 11.8655 148.928 11.829C148.925 11.8071 148.923 11.7847 148.917 11.7635C148.912 11.7423 148.903 11.7231 148.894 11.7039C148.885 11.6846 148.875 11.6679 148.863 11.6506C148.842 11.6185 148.817 11.5884 148.801 11.5524L148.817 11.5909C148.81 11.5743 148.806 11.5576 148.803 11.5402L148.809 11.5826C148.808 11.5723 148.808 11.5627 148.809 11.5524L148.803 11.5948C148.804 11.5864 148.806 11.5787 148.809 11.571L148.793 11.6095C148.796 11.6018 148.8 11.5948 148.805 11.5884L148.78 11.6211L148.783 11.6172C148.811 11.5839 148.83 11.5486 148.83 11.5037C148.83 11.4645 148.813 11.4171 148.783 11.3901C148.754 11.3632 148.713 11.3414 148.67 11.3433C148.629 11.3452 148.583 11.358 148.556 11.3901C148.529 11.4222 148.513 11.4459 148.5 11.4864C148.491 11.5107 148.488 11.537 148.487 11.5627C148.486 11.6095 148.498 11.6532 148.516 11.6955C148.53 11.7289 148.547 11.7571 148.568 11.786C148.586 11.8116 148.604 11.8367 148.616 11.8655L148.6 11.827C148.606 11.8399 148.609 11.8521 148.611 11.8655L148.606 11.8232V11.829C148.706 11.802 148.806 11.7751 148.905 11.7481C148.896 11.7276 148.887 11.7077 148.878 11.6865L148.894 11.725C148.853 11.6281 148.822 11.5274 148.799 11.4241C148.791 11.3863 148.758 11.3478 148.725 11.3285C148.693 11.3093 148.64 11.2997 148.602 11.3125C148.563 11.3253 148.525 11.3491 148.506 11.3863C148.486 11.4254 148.48 11.4658 148.49 11.5101L148.492 11.5088Z" fill="#172C66"/>
<path d="M144.586 16.4498C145.397 15.0462 145.103 13.3598 143.932 12.6832C142.76 12.0066 141.153 12.596 140.342 13.9996C139.532 15.4032 139.825 17.0895 140.997 17.7661C142.169 18.4427 143.776 17.8534 144.586 16.4498Z" stroke="#172C66" stroke-width="0.611111" stroke-miterlimit="10"/>
<path d="M5.89608 19V5.31111H7.34319V17.7484H15.009V19H5.89608ZM19.0739 19V8.73333H20.4624V19H19.0739ZM19.7779 6.46489C19.4911 6.46489 19.2499 6.36711 19.0544 6.17156C18.8588 5.976 18.761 5.74133 18.761 5.46756C18.761 5.19378 18.8588 4.96563 19.0544 4.78311C19.2499 4.58755 19.4911 4.48978 19.7779 4.48978C20.0647 4.48978 20.3059 4.58104 20.5015 4.76355C20.697 4.94607 20.7948 5.17422 20.7948 5.448C20.7948 5.73481 20.697 5.976 20.5015 6.17156C20.319 6.36711 20.0778 6.46489 19.7779 6.46489ZM29.0386 19.0978C28.1911 19.0978 27.3894 18.9804 26.6332 18.7458C25.8771 18.4981 25.2839 18.1917 24.8537 17.8267L25.4794 16.7316C25.8966 17.0444 26.4311 17.3182 27.083 17.5529C27.7349 17.7745 28.4193 17.8853 29.1363 17.8853C30.1141 17.8853 30.8181 17.7354 31.2483 17.4356C31.6786 17.1227 31.8937 16.712 31.8937 16.2036C31.8937 15.8255 31.7698 15.5321 31.5221 15.3236C31.2874 15.1019 30.9746 14.939 30.5834 14.8347C30.1923 14.7173 29.7556 14.6196 29.2732 14.5413C28.7909 14.4631 28.3085 14.3719 27.8261 14.2676C27.3568 14.1633 26.9266 14.0133 26.5354 13.8178C26.1443 13.6092 25.8249 13.3289 25.5772 12.9769C25.3426 12.6249 25.2252 12.1556 25.2252 11.5689C25.2252 11.0083 25.3817 10.5064 25.6946 10.0631C26.0074 9.61985 26.4637 9.27437 27.0634 9.02667C27.6762 8.76593 28.4193 8.63556 29.2928 8.63556C29.9577 8.63556 30.6226 8.72681 31.2874 8.90933C31.9523 9.07881 32.4999 9.30696 32.9301 9.59378L32.3239 10.7084C31.8676 10.3956 31.3787 10.1739 30.8572 10.0436C30.3357 9.90015 29.8143 9.82844 29.2928 9.82844C28.3671 9.82844 27.6827 9.99141 27.2394 10.3173C26.8092 10.6302 26.5941 11.0344 26.5941 11.5298C26.5941 11.9209 26.7114 12.2273 26.9461 12.4489C27.1938 12.6705 27.5132 12.8465 27.9043 12.9769C28.3085 13.0942 28.7452 13.192 29.2146 13.2702C29.6969 13.3484 30.1728 13.4462 30.6421 13.5636C31.1245 13.6679 31.5612 13.8178 31.9523 14.0133C32.3565 14.1959 32.6759 14.4631 32.9106 14.8151C33.1583 15.1541 33.2821 15.6039 33.2821 16.1644C33.2821 16.7641 33.1126 17.2856 32.7737 17.7289C32.4477 18.1591 31.9654 18.4981 31.3266 18.7458C30.7008 18.9804 29.9381 19.0978 29.0386 19.0978ZM44.2192 19V16.7316L44.1605 16.36V12.5662C44.1605 11.6927 43.9128 11.0213 43.4174 10.552C42.935 10.0827 42.2115 9.848 41.2467 9.848C40.5818 9.848 39.9495 9.95881 39.3498 10.1804C38.7501 10.4021 38.2417 10.6954 37.8245 11.0604L37.1987 10.024C37.7202 9.58074 38.346 9.24178 39.0761 9.00711C39.8061 8.75941 40.5753 8.63556 41.3836 8.63556C42.7134 8.63556 43.7368 8.968 44.4538 9.63289C45.1839 10.2847 45.5489 11.2821 45.5489 12.6249V19H44.2192ZM40.6796 19.0978C39.9104 19.0978 39.239 18.9739 38.6654 18.7262C38.1048 18.4655 37.6746 18.1135 37.3747 17.6702C37.0749 17.2139 36.9249 16.6924 36.9249 16.1058C36.9249 15.5713 37.0488 15.0889 37.2965 14.6587C37.5572 14.2154 37.9744 13.8634 38.5481 13.6027C39.1347 13.3289 39.9169 13.192 40.8947 13.192H44.4343V14.2284H40.9338C39.943 14.2284 39.2521 14.4044 38.8609 14.7564C38.4829 15.1084 38.2938 15.5452 38.2938 16.0667C38.2938 16.6533 38.522 17.1227 38.9783 17.4747C39.4346 17.8267 40.0734 18.0027 40.8947 18.0027C41.6769 18.0027 42.3484 17.8267 42.9089 17.4747C43.4826 17.1096 43.8998 16.5881 44.1605 15.9102L44.4734 16.8684C44.2126 17.5464 43.7564 18.0874 43.1045 18.4916C42.4657 18.8957 41.6574 19.0978 40.6796 19.0978ZM62.5342 19L56.4719 5.31111H58.0364L63.7075 18.1982H62.8471L68.5573 5.31111H70.0239L63.9617 19H62.5342ZM79.3237 19V16.7316L79.265 16.36V12.5662C79.265 11.6927 79.0173 11.0213 78.5219 10.552C78.0395 10.0827 77.316 9.848 76.3512 9.848C75.6863 9.848 75.0541 9.95881 74.4543 10.1804C73.8546 10.4021 73.3462 10.6954 72.929 11.0604L72.3032 10.024C72.8247 9.58074 73.4505 9.24178 74.1806 9.00711C74.9106 8.75941 75.6798 8.63556 76.4881 8.63556C77.8179 8.63556 78.8413 8.968 79.5583 9.63289C80.2884 10.2847 80.6535 11.2821 80.6535 12.6249V19H79.3237ZM75.7841 19.0978C75.0149 19.0978 74.3435 18.9739 73.7699 18.7262C73.2093 18.4655 72.7791 18.1135 72.4792 17.6702C72.1794 17.2139 72.0295 16.6924 72.0295 16.1058C72.0295 15.5713 72.1533 15.0889 72.401 14.6587C72.6618 14.2154 73.0789 13.8634 73.6526 13.6027C74.2392 13.3289 75.0215 13.192 75.9992 13.192H79.5388V14.2284H76.0383C75.0475 14.2284 74.3566 14.4044 73.9655 14.7564C73.5874 15.1084 73.3983 15.5452 73.3983 16.0667C73.3983 16.6533 73.6265 17.1227 74.0828 17.4747C74.5391 17.8267 75.1779 18.0027 75.9992 18.0027C76.7815 18.0027 77.4529 17.8267 78.0135 17.4747C78.5871 17.1096 79.0043 16.5881 79.265 15.9102L79.5779 16.8684C79.3172 17.5464 78.8609 18.0874 78.209 18.4916C77.5702 18.8957 76.7619 19.0978 75.7841 19.0978ZM86.3802 19V8.73333H87.71V11.5298L87.5731 11.0409C87.8599 10.2587 88.3422 9.66548 89.0202 9.26133C89.6981 8.84415 90.539 8.63556 91.5428 8.63556V9.98489C91.4907 9.98489 91.4385 9.98489 91.3864 9.98489C91.3342 9.97185 91.2821 9.96533 91.23 9.96533C90.1479 9.96533 89.3005 10.2978 88.6877 10.9627C88.075 11.6145 87.7686 12.5467 87.7686 13.7591V19H86.3802ZM99.7174 19.0978C98.7526 19.0978 98.0095 18.837 97.488 18.3156C96.9666 17.7941 96.7058 17.0575 96.7058 16.1058V6.46489H98.0943V16.0276C98.0943 16.6273 98.2442 17.0901 98.544 17.416C98.8569 17.7419 99.3002 17.9049 99.8738 17.9049C100.487 17.9049 100.995 17.7289 101.399 17.3769L101.888 18.3742C101.614 18.6219 101.282 18.8044 100.891 18.9218C100.513 19.0391 100.122 19.0978 99.7174 19.0978ZM94.8676 9.88711V8.73333H101.223V9.88711H94.8676ZM106.371 19V8.73333H107.76V19H106.371ZM107.075 6.46489C106.788 6.46489 106.547 6.36711 106.352 6.17156C106.156 5.976 106.058 5.74133 106.058 5.46756C106.058 5.19378 106.156 4.96563 106.352 4.78311C106.547 4.58755 106.788 4.48978 107.075 4.48978C107.362 4.48978 107.603 4.58104 107.799 4.76355C107.994 4.94607 108.092 5.17422 108.092 5.448C108.092 5.73481 107.994 5.976 107.799 6.17156C107.616 6.36711 107.375 6.46489 107.075 6.46489ZM120.012 19V16.7316L119.954 16.36V12.5662C119.954 11.6927 119.706 11.0213 119.21 10.552C118.728 10.0827 118.005 9.848 117.04 9.848C116.375 9.848 115.743 9.95881 115.143 10.1804C114.543 10.4021 114.035 10.6954 113.618 11.0604L112.992 10.024C113.513 9.58074 114.139 9.24178 114.869 9.00711C115.599 8.75941 116.368 8.63556 117.177 8.63556C118.506 8.63556 119.53 8.968 120.247 9.63289C120.977 10.2847 121.342 11.2821 121.342 12.6249V19H120.012ZM116.473 19.0978C115.703 19.0978 115.032 18.9739 114.458 18.7262C113.898 18.4655 113.468 18.1135 113.168 17.6702C112.868 17.2139 112.718 16.6924 112.718 16.1058C112.718 15.5713 112.842 15.0889 113.09 14.6587C113.35 14.2154 113.767 13.8634 114.341 13.6027C114.928 13.3289 115.71 13.192 116.688 13.192H120.227V14.2284H116.727C115.736 14.2284 115.045 14.4044 114.654 14.7564C114.276 15.1084 114.087 15.5452 114.087 16.0667C114.087 16.6533 114.315 17.1227 114.771 17.4747C115.228 17.8267 115.866 18.0027 116.688 18.0027C117.47 18.0027 118.141 17.8267 118.702 17.4747C119.276 17.1096 119.693 16.5881 119.954 15.9102L120.266 16.8684C120.006 17.5464 119.549 18.0874 118.898 18.4916C118.259 18.8957 117.45 19.0978 116.473 19.0978ZM8.18408 37.0733C7.45075 37.0733 6.79075 36.9071 6.20408 36.5747C5.62719 36.2422 5.17253 35.7827 4.84008 35.196C4.50764 34.5996 4.34141 33.9151 4.34141 33.1427C4.34141 32.3604 4.50764 31.676 4.84008 31.0893C5.17253 30.5027 5.62719 30.048 6.20408 29.7253C6.79075 29.3929 7.45075 29.2267 8.18408 29.2267C8.85875 29.2267 9.46008 29.3782 9.98808 29.6813C10.5259 29.9844 10.9512 30.4293 11.2641 31.016C11.5867 31.5929 11.7481 32.3018 11.7481 33.1427C11.7481 33.9738 11.5916 34.6827 11.2787 35.2693C10.9659 35.856 10.5405 36.3058 10.0027 36.6187C9.47475 36.9218 8.86853 37.0733 8.18408 37.0733ZM8.25741 36.1493C8.80497 36.1493 9.29386 36.0271 9.72408 35.7827C10.1641 35.5284 10.5063 35.1764 10.7507 34.7267C11.005 34.2671 11.1321 33.7391 11.1321 33.1427C11.1321 32.5364 11.005 32.0084 10.7507 31.5587C10.5063 31.1089 10.1641 30.7618 9.72408 30.5173C9.29386 30.2631 8.80497 30.136 8.25741 30.136C7.71964 30.136 7.23564 30.2631 6.80541 30.5173C6.37519 30.7618 6.03297 31.1089 5.77875 31.5587C5.52453 32.0084 5.39741 32.5364 5.39741 33.1427C5.39741 33.7391 5.52453 34.2671 5.77875 34.7267C6.03297 35.1764 6.37519 35.5284 6.80541 35.7827C7.23564 36.0271 7.71964 36.1493 8.25741 36.1493ZM11.1614 37V34.6827L11.2641 33.128L11.1174 31.5733V26.1173H12.1587V37H11.1614ZM19.7962 37.0733C18.9944 37.0733 18.2904 36.9071 17.6842 36.5747C17.078 36.2324 16.6037 35.768 16.2615 35.1813C15.9193 34.5849 15.7482 33.9053 15.7482 33.1427C15.7482 32.38 15.9095 31.7053 16.2322 31.1187C16.5646 30.532 17.0144 30.0724 17.5815 29.74C18.1584 29.3978 18.8037 29.2267 19.5175 29.2267C20.2411 29.2267 20.8815 29.3929 21.4389 29.7253C22.006 30.048 22.4509 30.5076 22.7735 31.104C23.0962 31.6907 23.2575 32.3702 23.2575 33.1427C23.2575 33.1916 23.2526 33.2453 23.2429 33.304C23.2429 33.3529 23.2429 33.4067 23.2429 33.4653H16.5402V32.688H22.6855L22.2749 32.996C22.2749 32.4387 22.1526 31.9449 21.9082 31.5147C21.6735 31.0747 21.3509 30.7324 20.9402 30.488C20.5295 30.2436 20.0553 30.1213 19.5175 30.1213C18.9895 30.1213 18.5153 30.2436 18.0949 30.488C17.6744 30.7324 17.3469 31.0747 17.1122 31.5147C16.8775 31.9547 16.7602 32.4582 16.7602 33.0253V33.1867C16.7602 33.7733 16.8873 34.2916 17.1415 34.7413C17.4055 35.1813 17.7673 35.5284 18.2269 35.7827C18.6962 36.0271 19.2291 36.1493 19.8255 36.1493C20.2949 36.1493 20.73 36.0662 21.1309 35.9C21.5415 35.7338 21.8935 35.4796 22.1869 35.1373L22.7735 35.812C22.4313 36.2227 22.0011 36.5356 21.4829 36.7507C20.9744 36.9658 20.4122 37.0733 19.7962 37.0733ZM28.6805 37L25.2632 29.3H26.3485L29.4872 36.4427H28.9739L32.1565 29.3H33.1832L29.7512 37H28.6805ZM39.1722 37.0733C38.3704 37.0733 37.6664 36.9071 37.0602 36.5747C36.454 36.2324 35.9798 35.768 35.6376 35.1813C35.2953 34.5849 35.1242 33.9053 35.1242 33.1427C35.1242 32.38 35.2856 31.7053 35.6082 31.1187C35.9407 30.532 36.3904 30.0724 36.9576 29.74C37.5344 29.3978 38.1798 29.2267 38.8936 29.2267C39.6171 29.2267 40.2576 29.3929 40.8149 29.7253C41.382 30.048 41.8269 30.5076 42.1496 31.104C42.4722 31.6907 42.6336 32.3702 42.6336 33.1427C42.6336 33.1916 42.6287 33.2453 42.6189 33.304C42.6189 33.3529 42.6189 33.4067 42.6189 33.4653H35.9162V32.688H42.0616L41.6509 32.996C41.6509 32.4387 41.5287 31.9449 41.2842 31.5147C41.0496 31.0747 40.7269 30.7324 40.3162 30.488C39.9056 30.2436 39.4313 30.1213 38.8936 30.1213C38.3656 30.1213 37.8913 30.2436 37.4709 30.488C37.0504 30.7324 36.7229 31.0747 36.4882 31.5147C36.2536 31.9547 36.1362 32.4582 36.1362 33.0253V33.1867C36.1362 33.7733 36.2633 34.2916 36.5176 34.7413C36.7816 35.1813 37.1433 35.5284 37.6029 35.7827C38.0722 36.0271 38.6051 36.1493 39.2016 36.1493C39.6709 36.1493 40.106 36.0662 40.5069 35.9C40.9176 35.7338 41.2696 35.4796 41.5629 35.1373L42.1496 35.812C41.8073 36.2227 41.3771 36.5356 40.8589 36.7507C40.3504 36.9658 39.7882 37.0733 39.1722 37.0733ZM46.2198 37V26.1173H47.2611V37H46.2198ZM54.7639 37.0733C54.0208 37.0733 53.351 36.9071 52.7546 36.5747C52.1679 36.2324 51.7035 35.768 51.3613 35.1813C51.019 34.5849 50.8479 33.9053 50.8479 33.1427C50.8479 32.3702 51.019 31.6907 51.3613 31.104C51.7035 30.5173 52.1679 30.0578 52.7546 29.7253C53.3413 29.3929 54.011 29.2267 54.7639 29.2267C55.5266 29.2267 56.2013 29.3929 56.7879 29.7253C57.3844 30.0578 57.8488 30.5173 58.1813 31.104C58.5235 31.6907 58.6946 32.3702 58.6946 33.1427C58.6946 33.9053 58.5235 34.5849 58.1813 35.1813C57.8488 35.768 57.3844 36.2324 56.7879 36.5747C56.1915 36.9071 55.5168 37.0733 54.7639 37.0733ZM54.7639 36.1493C55.3213 36.1493 55.815 36.0271 56.2453 35.7827C56.6755 35.5284 57.0128 35.1764 57.2573 34.7267C57.5115 34.2671 57.6386 33.7391 57.6386 33.1427C57.6386 32.5364 57.5115 32.0084 57.2573 31.5587C57.0128 31.1089 56.6755 30.7618 56.2453 30.5173C55.815 30.2631 55.3261 30.136 54.7786 30.136C54.231 30.136 53.7421 30.2631 53.3119 30.5173C52.8817 30.7618 52.5395 31.1089 52.2853 31.5587C52.031 32.0084 51.9039 32.5364 51.9039 33.1427C51.9039 33.7391 52.031 34.2671 52.2853 34.7267C52.5395 35.1764 52.8817 35.5284 53.3119 35.7827C53.7421 36.0271 54.2261 36.1493 54.7639 36.1493ZM66.2619 37.0733C65.597 37.0733 64.9957 36.9218 64.4579 36.6187C63.9201 36.3058 63.4899 35.8609 63.1672 35.284C62.8543 34.6973 62.6979 33.9836 62.6979 33.1427C62.6979 32.3018 62.8543 31.5929 63.1672 31.016C63.4801 30.4293 63.9055 29.9844 64.4432 29.6813C64.981 29.3782 65.5872 29.2267 66.2619 29.2267C66.9952 29.2267 67.6503 29.3929 68.2272 29.7253C68.8139 30.048 69.2735 30.5076 69.6059 31.104C69.9383 31.6907 70.1046 32.3702 70.1046 33.1427C70.1046 33.9249 69.9383 34.6093 69.6059 35.196C69.2735 35.7827 68.8139 36.2422 68.2272 36.5747C67.6503 36.9071 66.9952 37.0733 66.2619 37.0733ZM62.2872 39.8453V29.3H63.2846V31.6173L63.1819 33.1573L63.3286 34.712V39.8453H62.2872ZM66.1886 36.1493C66.7361 36.1493 67.225 36.0271 67.6552 35.7827C68.0855 35.5284 68.4277 35.1764 68.6819 34.7267C68.9361 34.2671 69.0632 33.7391 69.0632 33.1427C69.0632 32.5462 68.9361 32.0231 68.6819 31.5733C68.4277 31.1236 68.0855 30.7716 67.6552 30.5173C67.225 30.2631 66.7361 30.136 66.1886 30.136C65.641 30.136 65.1472 30.2631 64.7072 30.5173C64.277 30.7716 63.9348 31.1236 63.6806 31.5733C63.4361 32.0231 63.3139 32.5462 63.3139 33.1427C63.3139 33.7391 63.4361 34.2671 63.6806 34.7267C63.9348 35.1764 64.277 35.5284 64.7072 35.7827C65.1472 36.0271 65.641 36.1493 66.1886 36.1493ZM76.9647 37.0733C76.1629 37.0733 75.4589 36.9071 74.8527 36.5747C74.2464 36.2324 73.7722 35.768 73.43 35.1813C73.0878 34.5849 72.9167 33.9053 72.9167 33.1427C72.9167 32.38 73.078 31.7053 73.4007 31.1187C73.7331 30.532 74.1829 30.0724 74.75 29.74C75.3269 29.3978 75.9722 29.2267 76.686 29.2267C77.4096 29.2267 78.05 29.3929 78.6073 29.7253C79.1744 30.048 79.6193 30.5076 79.942 31.104C80.2647 31.6907 80.426 32.3702 80.426 33.1427C80.426 33.1916 80.4211 33.2453 80.4113 33.304C80.4113 33.3529 80.4113 33.4067 80.4113 33.4653H73.7087V32.688H79.854L79.4433 32.996C79.4433 32.4387 79.3211 31.9449 79.0767 31.5147C78.842 31.0747 78.5193 30.7324 78.1087 30.488C77.698 30.2436 77.2238 30.1213 76.686 30.1213C76.158 30.1213 75.6838 30.2436 75.2633 30.488C74.8429 30.7324 74.5153 31.0747 74.2807 31.5147C74.046 31.9547 73.9287 32.4582 73.9287 33.0253V33.1867C73.9287 33.7733 74.0558 34.2916 74.31 34.7413C74.574 35.1813 74.9358 35.5284 75.3953 35.7827C75.8647 36.0271 76.3976 36.1493 76.994 36.1493C77.4633 36.1493 77.8984 36.0662 78.2993 35.9C78.71 35.7338 79.062 35.4796 79.3553 35.1373L79.942 35.812C79.5998 36.2227 79.1696 36.5356 78.6513 36.7507C78.1429 36.9658 77.5807 37.0733 76.9647 37.0733ZM84.0122 37V29.3H85.0096V31.3973L84.9069 31.0307C85.122 30.444 85.4838 29.9991 85.9922 29.696C86.5007 29.3831 87.1313 29.2267 87.8842 29.2267V30.2387C87.8451 30.2387 87.806 30.2387 87.7669 30.2387C87.7278 30.2289 87.6887 30.224 87.6496 30.224C86.838 30.224 86.2025 30.4733 85.7429 30.972C85.2833 31.4609 85.0536 32.16 85.0536 33.0693V37H84.0122ZM99.3842 37.088C98.7193 37.088 98.1277 36.9804 97.6095 36.7653C97.0913 36.5404 96.6806 36.2324 96.3775 35.8413C96.0842 35.4502 95.9375 34.9956 95.9375 34.4773C95.9375 34.0373 96.0353 33.6364 96.2308 33.2747C96.4264 32.9031 96.7393 32.5413 97.1695 32.1893C97.6095 31.8276 98.1913 31.4511 98.9148 31.06C99.5308 30.7178 100.01 30.4244 100.352 30.18C100.704 29.9258 100.953 29.6862 101.1 29.4613C101.247 29.2267 101.32 28.9773 101.32 28.7133C101.32 28.332 101.188 28.024 100.924 27.7893C100.67 27.5547 100.303 27.4373 99.8242 27.4373C99.3059 27.4373 98.905 27.5693 98.6215 27.8333C98.3379 28.0876 98.1962 28.42 98.1962 28.8307C98.1962 29.036 98.2255 29.2316 98.2842 29.4173C98.3526 29.6031 98.4748 29.8084 98.6508 30.0333C98.8366 30.2582 99.0908 30.5418 99.4135 30.884L104.84 36.472L104.239 37.1613L98.5775 31.3387C98.2353 30.9769 97.9615 30.664 97.7562 30.4C97.5606 30.1262 97.4237 29.8671 97.3455 29.6227C97.2673 29.3782 97.2282 29.1191 97.2282 28.8453C97.2282 28.4053 97.3308 28.024 97.5362 27.7013C97.7513 27.3689 98.0544 27.1147 98.4455 26.9387C98.8366 26.7529 99.2962 26.66 99.8242 26.66C100.303 26.66 100.719 26.7431 101.071 26.9093C101.433 27.0658 101.711 27.2956 101.907 27.5987C102.112 27.9018 102.215 28.2684 102.215 28.6987C102.215 29.0702 102.122 29.4173 101.936 29.74C101.76 30.0627 101.467 30.3804 101.056 30.6933C100.645 30.9964 100.088 31.3387 99.3842 31.72C98.7682 32.0622 98.2793 32.3751 97.9175 32.6587C97.5655 32.9422 97.3162 33.2209 97.1695 33.4947C97.0228 33.7587 96.9495 34.052 96.9495 34.3747C96.9495 34.7462 97.0522 35.0738 97.2575 35.3573C97.4726 35.6311 97.7659 35.8462 98.1375 36.0027C98.5188 36.1493 98.9539 36.2227 99.4428 36.2227C100.127 36.2227 100.738 36.0809 101.276 35.7973C101.814 35.5138 102.264 35.0836 102.625 34.5067C102.997 33.9298 103.266 33.2062 103.432 32.336L104.268 32.6C104.082 33.5778 103.765 34.3991 103.315 35.064C102.865 35.7289 102.308 36.2324 101.643 36.5747C100.978 36.9169 100.225 37.088 99.3842 37.088ZM116.319 37.0733C115.586 37.0733 114.926 36.9071 114.339 36.5747C113.762 36.2422 113.308 35.7827 112.975 35.196C112.643 34.5996 112.477 33.9151 112.477 33.1427C112.477 32.3604 112.643 31.676 112.975 31.0893C113.308 30.5027 113.762 30.048 114.339 29.7253C114.926 29.3929 115.586 29.2267 116.319 29.2267C116.994 29.2267 117.595 29.3782 118.123 29.6813C118.661 29.9844 119.086 30.4293 119.399 31.016C119.722 31.5929 119.883 32.3018 119.883 33.1427C119.883 33.9738 119.727 34.6827 119.414 35.2693C119.101 35.856 118.676 36.3058 118.138 36.6187C117.61 36.9218 117.004 37.0733 116.319 37.0733ZM116.393 36.1493C116.94 36.1493 117.429 36.0271 117.859 35.7827C118.299 35.5284 118.641 35.1764 118.886 34.7267C119.14 34.2671 119.267 33.7391 119.267 33.1427C119.267 32.5364 119.14 32.0084 118.886 31.5587C118.641 31.1089 118.299 30.7618 117.859 30.5173C117.429 30.2631 116.94 30.136 116.393 30.136C115.855 30.136 115.371 30.2631 114.941 30.5173C114.51 30.7618 114.168 31.1089 113.914 31.5587C113.66 32.0084 113.533 32.5364 113.533 33.1427C113.533 33.7391 113.66 34.2671 113.914 34.7267C114.168 35.1764 114.51 35.5284 114.941 35.7827C115.371 36.0271 115.855 36.1493 116.393 36.1493ZM119.297 37V34.6827L119.399 33.128L119.253 31.5733V26.1173H120.294V37H119.297ZM127.931 37.0733C127.13 37.0733 126.426 36.9071 125.819 36.5747C125.213 36.2324 124.739 35.768 124.397 35.1813C124.054 34.5849 123.883 33.9053 123.883 33.1427C123.883 32.38 124.045 31.7053 124.367 31.1187C124.7 30.532 125.15 30.0724 125.717 29.74C126.294 29.3978 126.939 29.2267 127.653 29.2267C128.376 29.2267 129.017 29.3929 129.574 29.7253C130.141 30.048 130.586 30.5076 130.909 31.104C131.231 31.6907 131.393 32.3702 131.393 33.1427C131.393 33.1916 131.388 33.2453 131.378 33.304C131.378 33.3529 131.378 33.4067 131.378 33.4653H124.675V32.688H130.821L130.41 32.996C130.41 32.4387 130.288 31.9449 130.043 31.5147C129.809 31.0747 129.486 30.7324 129.075 30.488C128.665 30.2436 128.19 30.1213 127.653 30.1213C127.125 30.1213 126.65 30.2436 126.23 30.488C125.81 30.7324 125.482 31.0747 125.247 31.5147C125.013 31.9547 124.895 32.4582 124.895 33.0253V33.1867C124.895 33.7733 125.022 34.2916 125.277 34.7413C125.541 35.1813 125.902 35.5284 126.362 35.7827C126.831 36.0271 127.364 36.1493 127.961 36.1493C128.43 36.1493 128.865 36.0662 129.266 35.9C129.677 35.7338 130.029 35.4796 130.322 35.1373L130.909 35.812C130.566 36.2227 130.136 36.5356 129.618 36.7507C129.11 36.9658 128.547 37.0733 127.931 37.0733ZM137.047 37.0733C136.411 37.0733 135.81 36.9853 135.243 36.8093C134.676 36.6236 134.231 36.3938 133.908 36.12L134.378 35.2987C134.69 35.5333 135.091 35.7387 135.58 35.9147C136.069 36.0809 136.582 36.164 137.12 36.164C137.854 36.164 138.382 36.0516 138.704 35.8267C139.027 35.592 139.188 35.284 139.188 34.9027C139.188 34.6191 139.095 34.3991 138.91 34.2427C138.734 34.0764 138.499 33.9542 138.206 33.876C137.912 33.788 137.585 33.7147 137.223 33.656C136.861 33.5973 136.499 33.5289 136.138 33.4507C135.786 33.3724 135.463 33.26 135.17 33.1133C134.876 32.9569 134.637 32.7467 134.451 32.4827C134.275 32.2187 134.187 31.8667 134.187 31.4267C134.187 31.0062 134.304 30.6298 134.539 30.2973C134.774 29.9649 135.116 29.7058 135.566 29.52C136.025 29.3244 136.582 29.2267 137.238 29.2267C137.736 29.2267 138.235 29.2951 138.734 29.432C139.232 29.5591 139.643 29.7302 139.966 29.9453L139.511 30.7813C139.169 30.5467 138.802 30.3804 138.411 30.2827C138.02 30.1751 137.629 30.1213 137.238 30.1213C136.543 30.1213 136.03 30.2436 135.698 30.488C135.375 30.7227 135.214 31.0258 135.214 31.3973C135.214 31.6907 135.302 31.9204 135.478 32.0867C135.663 32.2529 135.903 32.3849 136.196 32.4827C136.499 32.5707 136.827 32.644 137.179 32.7027C137.541 32.7613 137.898 32.8347 138.25 32.9227C138.611 33.0009 138.939 33.1133 139.232 33.26C139.535 33.3969 139.775 33.5973 139.951 33.8613C140.137 34.1156 140.23 34.4529 140.23 34.8733C140.23 35.3231 140.102 35.7142 139.848 36.0467C139.604 36.3693 139.242 36.6236 138.763 36.8093C138.294 36.9853 137.722 37.0733 137.047 37.0733ZM143.607 37V29.3H144.648V37H143.607ZM144.135 27.5987C143.92 27.5987 143.739 27.5253 143.592 27.3787C143.446 27.232 143.372 27.056 143.372 26.8507C143.372 26.6453 143.446 26.4742 143.592 26.3373C143.739 26.1907 143.92 26.1173 144.135 26.1173C144.35 26.1173 144.531 26.1858 144.678 26.3227C144.824 26.4596 144.898 26.6307 144.898 26.836C144.898 27.0511 144.824 27.232 144.678 27.3787C144.541 27.5253 144.36 27.5987 144.135 27.5987ZM152.298 39.9187C151.594 39.9187 150.919 39.816 150.274 39.6107C149.628 39.4053 149.105 39.112 148.704 38.7307L149.232 37.9387C149.594 38.2613 150.039 38.5156 150.567 38.7013C151.105 38.8969 151.672 38.9947 152.268 38.9947C153.246 38.9947 153.965 38.7649 154.424 38.3053C154.884 37.8556 155.114 37.1516 155.114 36.1933V34.272L155.26 32.952L155.158 31.632V29.3H156.155V36.0613C156.155 37.3911 155.828 38.364 155.172 38.98C154.527 39.6058 153.569 39.9187 152.298 39.9187ZM152.107 36.7067C151.374 36.7067 150.714 36.5502 150.127 36.2373C149.54 35.9147 149.076 35.4698 148.734 34.9027C148.401 34.3356 148.235 33.6853 148.235 32.952C148.235 32.2187 148.401 31.5733 148.734 31.016C149.076 30.4489 149.54 30.0089 150.127 29.696C150.714 29.3831 151.374 29.2267 152.107 29.2267C152.792 29.2267 153.408 29.3684 153.955 29.652C154.503 29.9356 154.938 30.356 155.26 30.9133C155.583 31.4707 155.744 32.1502 155.744 32.952C155.744 33.7538 155.583 34.4333 155.26 34.9907C154.938 35.548 154.503 35.9733 153.955 36.2667C153.408 36.56 152.792 36.7067 152.107 36.7067ZM152.21 35.7827C152.777 35.7827 153.28 35.6653 153.72 35.4307C154.16 35.1862 154.508 34.8538 154.762 34.4333C155.016 34.0031 155.143 33.5093 155.143 32.952C155.143 32.3947 155.016 31.9058 154.762 31.4853C154.508 31.0649 154.16 30.7373 153.72 30.5027C153.28 30.2582 152.777 30.136 152.21 30.136C151.652 30.136 151.149 30.2582 150.699 30.5027C150.259 30.7373 149.912 31.0649 149.658 31.4853C149.413 31.9058 149.291 32.3947 149.291 32.952C149.291 33.5093 149.413 34.0031 149.658 34.4333C149.912 34.8538 150.259 35.1862 150.699 35.4307C151.149 35.6653 151.652 35.7827 152.21 35.7827ZM164.45 29.2267C165.076 29.2267 165.624 29.3489 166.093 29.5933C166.572 29.828 166.944 30.1898 167.208 30.6787C167.481 31.1676 167.618 31.7836 167.618 32.5267V37H166.577V32.6293C166.577 31.8178 166.372 31.2067 165.961 30.796C165.56 30.3756 164.993 30.1653 164.26 30.1653C163.712 30.1653 163.233 30.2778 162.822 30.5027C162.421 30.7178 162.108 31.0356 161.884 31.456C161.668 31.8667 161.561 32.3653 161.561 32.952V37H160.52V29.3H161.517V31.412L161.356 31.016C161.6 30.4587 161.991 30.0236 162.529 29.7107C163.067 29.388 163.707 29.2267 164.45 29.2267ZM175.168 37.0733C174.367 37.0733 173.663 36.9071 173.056 36.5747C172.45 36.2324 171.976 35.768 171.634 35.1813C171.291 34.5849 171.12 33.9053 171.12 33.1427C171.12 32.38 171.282 31.7053 171.604 31.1187C171.937 30.532 172.387 30.0724 172.954 29.74C173.531 29.3978 174.176 29.2267 174.89 29.2267C175.613 29.2267 176.254 29.3929 176.811 29.7253C177.378 30.048 177.823 30.5076 178.146 31.104C178.468 31.6907 178.63 32.3702 178.63 33.1427C178.63 33.1916 178.625 33.2453 178.615 33.304C178.615 33.3529 178.615 33.4067 178.615 33.4653H171.912V32.688H178.058L177.647 32.996C177.647 32.4387 177.525 31.9449 177.28 31.5147C177.046 31.0747 176.723 30.7324 176.312 30.488C175.902 30.2436 175.427 30.1213 174.89 30.1213C174.362 30.1213 173.887 30.2436 173.467 30.488C173.047 30.7324 172.719 31.0747 172.484 31.5147C172.25 31.9547 172.132 32.4582 172.132 33.0253V33.1867C172.132 33.7733 172.259 34.2916 172.514 34.7413C172.778 35.1813 173.139 35.5284 173.599 35.7827C174.068 36.0271 174.601 36.1493 175.198 36.1493C175.667 36.1493 176.102 36.0662 176.503 35.9C176.914 35.7338 177.266 35.4796 177.559 35.1373L178.146 35.812C177.803 36.2227 177.373 36.5356 176.855 36.7507C176.347 36.9658 175.784 37.0733 175.168 37.0733ZM182.216 37V29.3H183.213V31.3973L183.111 31.0307C183.326 30.444 183.687 29.9991 184.196 29.696C184.704 29.3831 185.335 29.2267 186.088 29.2267V30.2387C186.049 30.2387 186.01 30.2387 185.971 30.2387C185.931 30.2289 185.892 30.224 185.853 30.224C185.042 30.224 184.406 30.4733 183.947 30.972C183.487 31.4609 183.257 32.16 183.257 33.0693V37H182.216Z" fill="#172C66"/>
<mask id="path-18-inside-1_171_45" fill="white">
<path d="M0 24.4443H189.444V43.9999H0V24.4443Z"/>
</mask>
<path d="M0 43.9999H-0.611111V44.611H0V43.9999ZM189.444 43.3888H0V44.611H189.444V43.3888ZM0.611111 43.9999V24.4443H-0.611111V43.9999H0.611111Z" fill="#172C66" mask="url(#path-18-inside-1_171_45)"/>
</svg>
