<svg width="26" height="25" viewBox="0 0 26 25" fill="none" xmlns="http://www.w3.org/2000/svg">
<path d="M12.8055 22.6111C18.7119 22.6111 23.5 17.823 23.5 11.9166C23.5 6.01023 18.7119 1.22217 12.8055 1.22217C6.89915 1.22217 2.11108 6.01023 2.11108 11.9166C2.11108 17.823 6.89915 22.6111 12.8055 22.6111Z" stroke="#172C66" stroke-width="1.22222" stroke-miterlimit="10"/>
<path d="M16.1666 9.77762C17.8542 9.77762 19.2222 8.4096 19.2222 6.72206C19.2222 5.03452 17.8542 3.6665 16.1666 3.6665C14.4791 3.6665 13.1111 5.03452 13.1111 6.72206C13.1111 8.4096 14.4791 9.77762 16.1666 9.77762Z" stroke="#172C66" stroke-width="0.611111" stroke-miterlimit="10"/>
<path d="M9.91367 12.8376C10.5145 12.6457 10.7638 11.7461 10.4706 10.8283C10.1773 9.9106 9.45255 9.32225 8.85176 9.51422C8.25096 9.70619 8.00163 10.6058 8.29487 11.5235C8.58811 12.4413 9.31287 13.0296 9.91367 12.8376Z" stroke="#172C66" stroke-width="0.611111" stroke-miterlimit="10"/>
<path d="M5.97999 10.1831C6.33973 8.76349 5.97952 7.44748 5.17543 7.24372C4.37134 7.03995 3.42786 8.02559 3.06812 9.4452C2.70838 10.8648 3.06859 12.1808 3.87268 12.3846C4.67677 12.5883 5.62025 11.6027 5.97999 10.1831Z" stroke="#172C66" stroke-width="0.611111" stroke-miterlimit="10"/>
<path d="M7.59924 5.01782C7.93019 5.01782 8.19848 4.74953 8.19848 4.41858C8.19848 4.08763 7.93019 3.81934 7.59924 3.81934C7.26829 3.81934 7 4.08763 7 4.41858C7 4.74953 7.26829 5.01782 7.59924 5.01782Z" fill="#172C66" stroke="#172C66" stroke-width="0.611111" stroke-miterlimit="10"/>
<path d="M9.54218 4.3202C10.1024 4.3202 10.5565 3.86606 10.5565 3.30585C10.5565 2.74564 10.1024 2.2915 9.54218 2.2915C8.98197 2.2915 8.52783 2.74564 8.52783 3.30585C8.52783 3.86606 8.98197 4.3202 9.54218 4.3202Z" fill="#172C66" stroke="#172C66" stroke-width="0.611111" stroke-miterlimit="10"/>
<path d="M8.90978 16.8054C9.12072 16.8054 9.29172 16.6344 9.29172 16.4234C9.29172 16.2125 9.12072 16.0415 8.90978 16.0415C8.69883 16.0415 8.52783 16.2125 8.52783 16.4234C8.52783 16.6344 8.69883 16.8054 8.90978 16.8054Z" fill="#172C66" stroke="#172C66" stroke-width="0.611111" stroke-miterlimit="10"/>
<path d="M7.76389 15.2778C8.18577 15.2778 8.52778 14.9358 8.52778 14.5139C8.52778 14.092 8.18577 13.75 7.76389 13.75C7.342 13.75 7 14.092 7 14.5139C7 14.9358 7.342 15.2778 7.76389 15.2778Z" fill="#172C66" stroke="#172C66" stroke-width="0.611111" stroke-miterlimit="10"/>
<path d="M20.368 11.4582C20.579 11.4582 20.75 11.2872 20.75 11.0763C20.75 10.8653 20.579 10.6943 20.368 10.6943C20.1571 10.6943 19.9861 10.8653 19.9861 11.0763C19.9861 11.2872 20.1571 11.4582 20.368 11.4582Z" fill="#172C66" stroke="#172C66" stroke-width="0.611111" stroke-miterlimit="10"/>
<path d="M21.423 10.0941C21.9832 10.0941 22.4374 9.63999 22.4374 9.07978C22.4374 8.51957 21.9832 8.06543 21.423 8.06543C20.8628 8.06543 20.4087 8.51957 20.4087 9.07978C20.4087 9.63999 20.8628 10.0941 21.423 10.0941Z" fill="#172C66" stroke="#172C66" stroke-width="0.611111" stroke-miterlimit="10"/>
<path d="M4.70825 14.8438C6.34519 18.6332 11.0989 20.5134 11.0989 20.5134" stroke="#172C66" stroke-width="0.611111" stroke-miterlimit="10"/>
<path d="M13.3047 21.0229L12.11 20.7309" stroke="#172C66" stroke-width="0.611111" stroke-miterlimit="10"/>
<path d="M22.3814 11.5084C22.3708 11.89 22.0391 16.7016 18.6166 18.9906" stroke="#172C66" stroke-width="0.611111" stroke-miterlimit="10"/>
<path d="M23.6549 11.6719C23.8615 11.6719 23.8615 11.3511 23.6549 11.3511C23.4484 11.3511 23.4484 11.6719 23.6549 11.6719Z" fill="#172C66"/>
<path d="M23.492 11.5088C23.5215 11.6474 23.5696 11.7808 23.6293 11.9092L23.6543 11.9419C23.669 11.9573 23.6857 11.9688 23.7056 11.9752C23.7377 11.9887 23.7762 11.9945 23.8102 11.9836C23.8365 11.9752 23.8602 11.9611 23.8808 11.9425C23.9071 11.9188 23.9321 11.8655 23.9276 11.829C23.925 11.8071 23.9231 11.7847 23.9173 11.7635C23.9116 11.7423 23.9026 11.7231 23.8936 11.7039C23.8846 11.6846 23.875 11.6679 23.8634 11.6506C23.8416 11.6185 23.8172 11.5884 23.8012 11.5524L23.8172 11.5909C23.8102 11.5743 23.8057 11.5576 23.8031 11.5402L23.8089 11.5826C23.8076 11.5723 23.8076 11.5627 23.8089 11.5524L23.8031 11.5948C23.8044 11.5864 23.8063 11.5787 23.8089 11.571L23.7929 11.6095C23.7961 11.6018 23.7999 11.5948 23.8051 11.5884L23.78 11.6211L23.7832 11.6172C23.8108 11.5839 23.8301 11.5486 23.8301 11.5037C23.8301 11.4645 23.8128 11.4171 23.7832 11.3901C23.7537 11.3632 23.7127 11.3414 23.6697 11.3433C23.6293 11.3452 23.5831 11.358 23.5561 11.3901C23.5292 11.4222 23.5131 11.4459 23.4997 11.4864C23.4913 11.5107 23.4881 11.537 23.4875 11.5627C23.4862 11.6095 23.4984 11.6532 23.5163 11.6955C23.5305 11.7289 23.5471 11.7571 23.5677 11.786C23.5856 11.8116 23.6036 11.8367 23.6164 11.8655L23.6004 11.827C23.6055 11.8399 23.6094 11.8521 23.6113 11.8655L23.6055 11.8232V11.829C23.7056 11.802 23.8057 11.7751 23.9051 11.7481C23.8955 11.7276 23.8865 11.7077 23.8776 11.6865L23.8936 11.725C23.8532 11.6281 23.8217 11.5274 23.7993 11.4241C23.7909 11.3863 23.7582 11.3478 23.7255 11.3285C23.6928 11.3093 23.6402 11.2997 23.6017 11.3125C23.5632 11.3253 23.5253 11.3491 23.5061 11.3863C23.4855 11.4254 23.4804 11.4658 23.49 11.5101L23.492 11.5088Z" fill="#172C66"/>
<path d="M19.5862 16.4498C20.3966 15.0462 20.1035 13.3598 18.9316 12.6832C17.7596 12.0066 16.1527 12.596 15.3423 13.9996C14.5319 15.4032 14.825 17.0895 15.997 17.7661C17.1689 18.4427 18.7758 17.8534 19.5862 16.4498Z" stroke="#172C66" stroke-width="0.611111" stroke-miterlimit="10"/>
</svg>
